<svg xmlns="http://www.w3.org/2000/svg" width="385" height="488" viewBox="0 0 385 488" role="img" aria-labelledby="title desc">
<title id="title">Languages &amp; Tools</title>
<desc id="desc">Weekly WakaTime activity and all-time active time. Chart percentages are within each top four.</desc>
<defs>
<linearGradient id="water" x2="1" y2="1"><stop stop-color="#f1faf6"/><stop offset=".55" stop-color="#edf5fb"/><stop offset="1" stop-color="#f5f0fa"/></linearGradient>
<clipPath id="edge"><rect x="1" y="1" width="383" height="486" rx="24"/></clipPath>
</defs>
<style>text{font-family:Verdana,Arial,sans-serif;fill:#355b65}.heading{font-size:14px;font-weight:600}.label{font-size:12px}.muted{font-size:11px;fill:#587580}.rule{stroke:#cbdedc}
@media(prefers-color-scheme:dark){#water stop:first-child{stop-color:#182f35}#water stop:nth-child(2){stop-color:#20323e}#water stop:last-child{stop-color:#302f43}text{fill:#dcece9}.muted{fill:#afc7cf}.rule{stroke:#405760}}</style>
<rect x="1" y="1" width="383" height="486" rx="24" fill="url(#water)" stroke="#86b6b5" stroke-opacity=".55"/>
<g clip-path="url(#edge)">
<g fill="none" stroke="#85bcbc" opacity=".22"><ellipse cx="350" cy="40" rx="115" ry="30"/><ellipse cx="350" cy="40" rx="140" ry="43"/><path d="M-20 468 Q90 443 200 468 T440 468"/></g>
</g>
<text x="30" y="36" class="heading">Languages &amp; Tools</text><text x="30" y="55" class="muted">LAST 7 DAYS · TOP 4 PER CHART</text>
<g transform="translate(0 82)"><text x="30" y="0" class="heading">Workflow</text><path class="segment" fill="#66aaa9" d="M 72.000000 22.000000 A 36 36 0 0 1 86.755193 90.837239 A 36 36 0 0 1 45.082233 34.095318 L 54.054822 42.063545 A 24 24 0 0 0 81.836795 79.891493 A 24 24 0 0 0 72.000000 34.000000 Z"/><circle cx="131" cy="22" r="3" fill="#66aaa9"/><text x="143" y="26" class="label">Pi</text><text x="355" y="26" text-anchor="end" class="muted">20h 00m · 86.6%</text><path class="segment" fill="#88add1" d="M 45.082233 34.095318 A 36 36 0 0 1 51.157288 28.647294 A 36 36 0 0 1 58.303223 24.707384 L 62.868815 35.804923 A 24 24 0 0 0 58.104859 38.431529 A 24 24 0 0 0 54.054822 42.063545 Z"/><circle cx="131" cy="45" r="3" fill="#88add1"/><text x="143" y="49" class="label">Codex Exec</text><text x="355" y="49" text-anchor="end" class="muted">1h 40m · 7.2%</text><path class="segment" fill="#b6a3d6" d="M 58.303223 24.707384 A 36 36 0 0 1 65.019104 22.683331 A 36 36 0 0 1 72.000000 22.000000 L 72.000000 34.000000 A 24 24 0 0 0 67.346069 34.455554 A 24 24 0 0 0 62.868815 35.804923 Z"/><circle cx="131" cy="68" r="3" fill="#b6a3d6"/><text x="143" y="72" class="label">Obsidian</text><text x="355" y="72" text-anchor="end" class="muted">1h 26m · 6.2%</text></g>
<g transform="translate(0 194)"><text x="30" y="0" class="heading">Languages</text><path class="segment" fill="#66aaa9" d="M 72.000000 22.000000 A 36 36 0 0 1 106.950139 49.369371 A 36 36 0 0 1 88.757871 89.861792 L 83.171914 79.241194 A 24 24 0 0 0 95.300093 52.246248 A 24 24 0 0 0 72.000000 34.000000 Z"/><circle cx="131" cy="22" r="3" fill="#66aaa9"/><text x="143" y="26" class="label">Other</text><text x="355" y="26" text-anchor="end" class="muted">8h 04m · 42.3%</text><path class="segment" fill="#88add1" d="M 88.757871 89.861792 A 36 36 0 0 1 55.846401 90.172368 A 36 36 0 0 1 36.436913 63.591678 L 48.291276 61.727785 A 24 24 0 0 0 61.230934 79.448245 A 24 24 0 0 0 83.171914 79.241194 Z"/><circle cx="131" cy="45" r="3" fill="#88add1"/><text x="143" y="49" class="label">Markdown</text><text x="355" y="49" text-anchor="end" class="muted">5h 46m · 30.2%</text><path class="segment" fill="#b6a3d6" d="M 36.436913 63.591678 A 36 36 0 0 1 37.439377 47.922137 A 36 36 0 0 1 45.016344 34.169719 L 54.010896 42.113146 A 24 24 0 0 0 48.959584 51.281425 A 24 24 0 0 0 48.291276 61.727785 Z"/><circle cx="131" cy="68" r="3" fill="#b6a3d6"/><text x="143" y="72" class="label">Image (png)</text><text x="355" y="72" text-anchor="end" class="muted">2h 40m · 14.0%</text><path class="segment" fill="#d5bd78" d="M 45.016344 34.169719 A 36 36 0 0 1 57.199495 25.183159 A 36 36 0 0 1 72.000000 22.000000 L 72.000000 34.000000 A 24 24 0 0 0 62.132997 36.122106 A 24 24 0 0 0 54.010896 42.113146 Z"/><circle cx="131" cy="91" r="3" fill="#d5bd78"/><text x="143" y="95" class="label">TypeScript</text><text x="355" y="95" text-anchor="end" class="muted">2h 34m · 13.5%</text></g>
<rect x="30.0000" y="320" width="199.1007" height="8" fill="#66aaa9"/><text x="30" y="350" class="muted">Coding · 14h 09m · 61.3%</text><rect x="229.1007" y="320" width="125.2035" height="8" fill="#88add1"/><text x="30" y="369" class="muted">AI Coding · 8h 54m · 38.5%</text><rect x="354.3042" y="320" width="0.6958" height="8" fill="#b6a3d6"/><text x="30" y="388" class="muted">Writing Docs · 0h 03m · 0.2%</text>
<path d="M30 412H355" class="rule"/>
<text x="30" y="434" class="heading">All-time active time · 1,689h 42m</text>
<text x="30" y="453" class="muted">Since 2024-07-21</text>
<text x="30" y="476" font-size="9" class="muted">Ring shares: top 4 · Category shares: all activity.</text>
</svg>