<svg xmlns="http://www.w3.org/2000/svg" width="385" height="472" viewBox="0 0 385 472" role="img" aria-labelledby="title desc">
<title id="title">Languages &amp; Tools</title>
<desc id="desc">Weekly WakaTime activity and all-time active time. Chart percentages are within each top four.</desc>
<defs>
<linearGradient id="water" x2="1" y2="1"><stop stop-color="#f1faf6"/><stop offset=".55" stop-color="#edf5fb"/><stop offset="1" stop-color="#f5f0fa"/></linearGradient>
<clipPath id="edge"><rect x="1" y="1" width="383" height="470" rx="24"/></clipPath>
</defs>
<style>text{font-family:Verdana,Arial,sans-serif;fill:#355b65}.heading{font-size:14px;font-weight:600}.label{font-size:12px}.muted{font-size:11px;fill:#587580}.rule{stroke:#cbdedc}
@media(prefers-color-scheme:dark){#water stop:first-child{stop-color:#182f35}#water stop:nth-child(2){stop-color:#20323e}#water stop:last-child{stop-color:#302f43}text{fill:#dcece9}.muted{fill:#afc7cf}.rule{stroke:#405760}}</style>
<rect x="1" y="1" width="383" height="470" rx="24" fill="url(#water)" stroke="#86b6b5" stroke-opacity=".55"/>
<g clip-path="url(#edge)">
<g fill="none" stroke="#85bcbc" opacity=".22"><ellipse cx="350" cy="40" rx="115" ry="30"/><ellipse cx="350" cy="40" rx="140" ry="43"/><path d="M-20 452 Q90 427 200 452 T440 452"/></g>
</g>
<text x="30" y="36" class="heading">Languages &amp; Tools</text><text x="30" y="55" class="muted">LAST 7 DAYS · TOP 4 PER CHART</text>
<g transform="translate(0 82)"><text x="30" y="0" class="heading">Workflow</text><path class="segment" fill="#66aaa9" d="M 72.000000 22.000000 A 36 36 0 0 1 72.000000 94.000000 A 36 36 0 0 1 72.000000 22.000000 L 72.000000 34.000000 A 24 24 0 0 0 72.000000 82.000000 A 24 24 0 0 0 72.000000 34.000000 Z"/><circle cx="131" cy="22" r="3" fill="#66aaa9"/><text x="143" y="26" class="label">Pi</text><text x="355" y="26" text-anchor="end" class="muted">9h 25m · 100.0%</text></g>
<g transform="translate(0 194)"><text x="30" y="0" class="heading">Languages</text><path class="segment" fill="#66aaa9" d="M 72.000000 22.000000 A 36 36 0 0 1 102.400439 77.282461 A 36 36 0 0 1 39.433596 73.343706 L 50.289064 68.229137 A 24 24 0 0 0 92.266960 70.854974 A 24 24 0 0 0 72.000000 34.000000 Z"/><circle cx="131" cy="22" r="3" fill="#66aaa9"/><text x="143" y="26" class="label">Other</text><text x="355" y="26" text-anchor="end" class="muted">5h 14m · 68.0%</text><path class="segment" fill="#88add1" d="M 39.433596 73.343706 A 36 36 0 0 1 36.065021 60.162708 A 36 36 0 0 1 37.828439 46.672847 L 49.218959 50.448565 A 24 24 0 0 0 48.043348 59.441805 A 24 24 0 0 0 50.289064 68.229137 Z"/><circle cx="131" cy="45" r="3" fill="#88add1"/><text x="143" y="49" class="label">Image (png)</text><text x="355" y="49" text-anchor="end" class="muted">0h 56m · 12.1%</text><path class="segment" fill="#b6a3d6" d="M 37.828439 46.672847 A 36 36 0 0 1 43.491637 36.016523 A 36 36 0 0 1 52.358267 27.830441 L 58.905511 37.886960 A 24 24 0 0 0 52.994425 43.344349 A 24 24 0 0 0 49.218959 50.448565 Z"/><circle cx="131" cy="68" r="3" fill="#b6a3d6"/><text x="143" y="72" class="label">JSON</text><text x="355" y="72" text-anchor="end" class="muted">0h 49m · 10.7%</text><path class="segment" fill="#d5bd78" d="M 52.358267 27.830441 A 36 36 0 0 1 61.755590 23.488378 A 36 36 0 0 1 72.000000 22.000000 L 72.000000 34.000000 A 24 24 0 0 0 65.170394 34.992252 A 24 24 0 0 0 58.905511 37.886960 Z"/><circle cx="131" cy="91" r="3" fill="#d5bd78"/><text x="143" y="95" class="label">Markdown</text><text x="355" y="95" text-anchor="end" class="muted">0h 42m · 9.2%</text></g>
<rect x="30.0000" y="320" width="259.2768" height="8" fill="#66aaa9"/><text x="30" y="350" class="muted">Coding · 7h 31m · 79.8%</text><rect x="289.2768" y="320" width="65.7232" height="8" fill="#88add1"/><text x="30" y="369" class="muted">AI Coding · 1h 54m · 20.2%</text>
<path d="M30 396H355" class="rule"/>
<text x="30" y="418" class="heading">All-time active time · 1,699h 06m</text>
<text x="30" y="437" class="muted">Since 2024-07-21</text>
<text x="30" y="460" font-size="9" class="muted">Ring shares: top 4 · Category shares: all activity.</text>
</svg>